<?xml version="1.0" encoding="UTF-8"?>
<svg id="Layer_1" xmlns="http://www.w3.org/2000/svg" version="1.1" viewBox="0 0 727.6 611.3">
  <!-- Generator: Adobe Illustrator 29.7.1, SVG Export Plug-In . SVG Version: 2.1.1 Build 8)  -->
  <defs>
    <style>
      .st0 {
        fill: #009886;
      }

      .st1 {
        fill: #f4f8f4;
      }

      .st2 {
        fill: #1d1d1b;
      }
    </style>
  </defs>
  <g>
    <path class="st0" d="M322.6,136.9C322.6,62.5,278.8,0,188,0H.9l-.9,11.8c1.9,178.5,147.1,322.7,326.1,322.7S650.4,190.3,652.3,11.8l-1.2-11.8h-193.7c-90.7,0-134.6,62.5-134.6,136.9"/>
    <g>
      <g>
        <circle class="st1" cx="221.7" cy="100" r="43.5" transform="translate(87.5 302.8) rotate(-80.8)"/>
        <circle class="st2" cx="222.1" cy="101" r="22.3"/>
      </g>
      <g>
        <circle class="st1" cx="427.8" cy="100" r="43.5"/>
        <circle class="st2" cx="428.2" cy="101" r="22.3"/>
      </g>
    </g>
  </g>
  <path class="st0" d="M590.9,611.3v-42.6l28.4,42.6h30.3l-34.2-50.1,33.3-44.3h-28.3l-29.5,39.7v-39.7h-24.9v94.4h24.9ZM498.8,537.4h12.8c11.1,0,16.2,3.5,16.2,11.1s-5.1,10.9-16.2,10.9h-12.8v-22ZM498.8,611.3v-31.4h8.2l19.3,31.4h29.6l-23.2-35.4c12.8-5.4,20-15.4,20-27.5,0-20.1-14.6-31.6-40.1-31.6h-38.7v94.4h24.9ZM416.8,544.2l9.9,30h-20l10.1-30ZM438.9,611.3h26.8l-34.6-94.4h-27.2l-35,94.4h25.1l5.9-17.5h33.2l5.8,17.5h0ZM333.5,537.8c9.9,0,15,4.2,15,11.6s-5.1,12.2-15,12.2h-11.8v-23.8h11.8ZM333.7,582.5c24.7,0,39.6-12.1,39.6-33.4s-14.9-32.2-39.6-32.2h-36.8v94.4h24.9v-28.8h12-.1ZM229,611.3v-71.9h28.9v-22.5h-82.7v22.5h28.9v71.9h24.9ZM169,589.7h-41.9v-16.2h37.2v-21.6h-37.2v-13.5h41v-21.6h-65.9v94.4h66.8v-21.6h0ZM24.9,611.3v-37.7h34.8v37.7h24.9v-94.4h-24.9v35.1H24.9v-35.1H0v94.4h24.9Z"/>
  <path class="st0" d="M727.6,393.5h-22.7v94.4h22.7v-94.4ZM660.5,469.1c-7,0-13.5-5.5-13.5-16.6s6.6-16.4,13.5-16.4,13.5,5.4,13.5,16.4-6.6,16.6-13.5,16.6M660.5,489.2c20.9,0,37-16.4,37-36.7s-16.1-36.7-37-36.7-37,16.4-37,36.7,16.1,36.7,37,36.7M583.7,469.1c-7,0-13.5-5.5-13.5-16.6s6.6-16.4,13.5-16.4,13.5,5.4,13.5,16.4-6.6,16.6-13.5,16.6M583.7,489.2c20.9,0,37-16.4,37-36.7s-16-36.7-37-36.7-37,16.4-37,36.7,16,36.7,37,36.7M497,450.7c0-10.6,5-14.6,10.5-14.6s10,4.9,10,13.8v38h22.5v-45.5c0-17.2-9.9-26.6-23.8-26.6s-14.1,3.4-19.2,8.9v-31.3h-22.5v94.4h22.5v-37.2h0ZM431.1,489.2c20.1,0,33.9-12.6,35.9-32.9h-23.9c-.5,8-4.9,12.8-11.8,12.8s-12.5-5.9-12.5-16.6,4.6-16.4,12.5-16.4,11.4,4.9,11.8,12.6h23.9c-2-19.7-16.4-32.9-35.9-32.9s-35.6,15.6-35.6,36.7,14.6,36.7,35.6,36.7M391.7,463.8c0-10.1-7.2-16.8-20.9-19.3l-15-2.8c-4.5-.8-6.7-1.7-6.7-4.7s3.4-4.6,8.7-4.6,10.5,3.4,11.1,9.1h21.6c-1.3-15.8-14.2-25.6-32.7-25.6s-30.1,9.6-30.1,23.3,7.9,18.5,20.3,20.8l13.9,2.5c4.9.9,7.2,2.2,7.2,5.4s-4.6,4.9-9.7,4.9c-7.8,0-13.2-3.8-13.2-9.7h-21.6c1.4,16.3,13,26.3,34.3,26.3s32.9-9.7,32.9-25.4M320.7,463.8c0-10.1-7.2-16.8-20.9-19.3l-15-2.8c-4.5-.8-6.7-1.7-6.7-4.7s3.4-4.6,8.7-4.6,10.5,3.4,11.1,9.1h21.6c-1.3-15.8-14.2-25.6-32.7-25.6s-30.1,9.6-30.1,23.3,7.9,18.5,20.3,20.8l13.9,2.5c4.9.9,7.2,2.2,7.2,5.4s-4.6,4.9-9.7,4.9c-7.8,0-13.2-3.8-13.2-9.7h-21.6c1.4,16.3,13,26.3,34.3,26.3s32.9-9.7,32.9-25.4M246.4,417.1h-22.5v70.8h22.5v-70.8h0ZM249.4,400.7c0-7.5-5.9-12.9-14.5-12.9s-14.5,5.4-14.5,12.9,5.9,12.8,14.5,12.8,14.5-5.4,14.5-12.8M215.8,463.8c0-10.1-7.2-16.8-20.9-19.3l-15-2.8c-4.5-.8-6.7-1.7-6.7-4.7s3.4-4.6,8.7-4.6,10.5,3.4,11.1,9.1h21.6c-1.3-15.8-14.2-25.6-32.7-25.6s-30.1,9.6-30.1,23.3,7.9,18.5,20.3,20.8l13.9,2.5c4.9.9,7.2,2.2,7.2,5.4s-4.6,4.9-9.7,4.9c-7.8,0-13.2-3.8-13.2-9.7h-21.6c1.4,16.3,13,26.3,34.3,26.3s32.9-9.7,32.9-25.4M100.3,466.3c0-4.9,4.1-7.4,11.7-7.4s5.5.3,8.9.9v4.5c0,5.8-4.5,9.3-12,9.3s-8.7-2.8-8.7-7.4M123.9,487.9h18.2v-43.7c0-17.9-11.4-28.4-30.9-28.4s-29.7,10.8-31,27.2h20.3c.8-6.2,4.5-9.6,10.6-9.6s9.9,3.4,9.9,9.6v3.4c-3-.5-6.6-.8-10.4-.8-20.3,0-31.4,7.5-31.4,21.3s9.9,22.2,24.6,22.2,15.3-2.5,20.3-8.2v6.8h0l-.2.2ZM37.1,449c9.3,0,13.7,3.8,13.7,9.6s-4.3,9.7-13.7,9.7h-14.6v-19.3h14.6ZM35.9,413.1c8.3,0,12.1,3.2,12.1,8s-3.8,8.3-12.1,8.3h-13.4v-16.3h13.4ZM74.2,459.5c0-10-5.4-17-15-21,7.9-4.7,12.2-11.2,12.2-19.5,0-16.4-12.9-25.5-33.5-25.5H0v94.4h39.1c22,0,35.1-10.6,35.1-28.4"/>
</svg>